<?xml version="1.0" standalone="no"?>
<!DOCTYPE svg PUBLIC "-//W3C//DTD SVG 20010904//EN"
 "http://www.w3.org/TR/2001/REC-SVG-20010904/DTD/svg10.dtd">
<svg version="1.0" xmlns="http://www.w3.org/2000/svg"
 width="700.000000pt" height="700.000000pt" viewBox="0 0 700.000000 700.000000"
 preserveAspectRatio="xMidYMid meet">
<metadata>
Created by potrace 1.14, written by Peter Selinger 2001-2017
</metadata>
<g transform="translate(0.000000,700.000000) scale(0.100000,-0.100000)"
fill="#000000" stroke="none">
<path d="M3163 6215 c-877 -117 -1618 -624 -2045 -1397 -38 -71 -75 -128 -82
-128 -6 0 -65 -7 -131 -15 -384 -45 -429 -55 -517 -120 -103 -76 -167 -192
-175 -320 -5 -77 238 -2220 258 -2285 39 -120 126 -221 236 -272 96 -46 168
-47 508 -8 l281 31 103 -101 c657 -642 1567 -908 2464 -721 548 115 1074 418
1446 835 106 119 231 285 297 395 l47 77 86 28 c175 57 317 142 448 269 167
162 268 354 308 585 29 165 21 289 -70 1084 -47 409 -90 763 -95 787 -38 158
-183 291 -349 321 -54 10 -98 7 -313 -17 l-250 -28 -46 55 c-337 400 -816 712
-1308 855 -112 33 -236 60 -361 81 -136 22 -599 28 -740 9z m3027 -2112 c60
-520 84 -758 83 -833 -1 -123 -26 -230 -75 -323 -45 -86 -172 -211 -263 -259
-154 -80 -384 -121 -562 -99 -142 17 -252 48 -264 75 -5 11 -36 131 -69 266
-34 135 -63 253 -66 262 -5 15 1 14 48 -6 115 -51 188 -68 293 -69 124 0 191
22 252 85 48 49 69 94 78 164 3 32 -22 284 -72 720 l-78 672 60 6 c82 9 475
56 500 60 11 2 27 4 35 5 13 1 29 -110 100 -726z m-1086 590 c-2 -10 -94 -506
-204 -1102 -110 -596 -202 -1086 -205 -1089 -8 -8 -560 -70 -567 -63 -3 3
-126 201 -273 439 -147 238 -271 430 -275 425 -4 -4 -80 -225 -169 -489 l-163
-482 -86 -10 c-228 -29 -482 -55 -486 -51 -9 9 -884 2054 -880 2058 6 7 639
78 645 72 4 -3 118 -289 254 -634 137 -345 251 -624 255 -620 4 4 115 322 246
706 230 672 239 698 262 695 20 -2 90 -111 410 -630 213 -345 389 -628 392
-628 3 0 52 303 109 673 57 369 105 673 106 675 3 3 562 69 602 71 25 1 30 -3
27 -16z m-3844 -435 c0 -26 179 -1560 182 -1563 2 -2 188 18 413 45 226 26
411 47 411 46 1 -1 14 -109 28 -241 15 -132 29 -254 32 -271 6 -31 5 -31 -43
-38 -26 -3 -282 -33 -568 -66 -286 -33 -588 -68 -672 -78 l-152 -18 -5 46 c-4
25 -31 261 -61 525 -30 264 -82 720 -116 1013 -33 294 -58 536 -55 540 6 5
515 67 584 71 12 0 22 -5 22 -11z"/>
</g>
</svg>
