<svg version="1" xmlns="http://www.w3.org/2000/svg" width="346.667" height="346.667" viewBox="0 0 260.000000 260.000000"><path d="M226.7 73.6c-.1.1-7.2.5-15.7.9s-17.3.9-19.5 1c-2.2.1-10.5.5-18.5.9s-17 .9-20 1.1c-3 .2-11.6.7-19 1-7.4.3-16 .8-19 1-3 .2-11.3.7-18.5 1-7.1.3-15.9.7-19.5 1-3.6.2-12.3.7-19.5 1.1-7.2.3-15.9.7-19.5.9-3.6.2-12.8.7-20.5 1-7.7.4-14.4.9-14.8 1.2-.7.4-.6 4.8.8 28.3.2 3.6.7 12.8 1.1 20.5.4 7.7.7 14.9.8 16 .1 1.7.8 2 4.9 2 2.6-.1 4.7.4 4.8 1 .4 4.4 2.1 37.7 2.2 42.5 0 2.1 1.6 2.9 5.1 2.5 1.7-.2 9.6-.7 17.6-1.1 8-.3 16.3-.8 18.5-.9 2.2-.1 11-.6 19.5-1s17.5-.9 20-1c2.5-.1 10.7-.6 18.3-1 7.6-.4 16.2-.8 19-1 5.2-.3 24.9-1.3 38.2-2 3.9-.2 12.2-.7 18.5-1 6.3-.4 14.4-.8 18-1 29.5-1.4 36.9-1.8 40-2 1.9-.2 4.5-.3 5.8-.4l2.3-.1-.7-12.8c-.3-7-.8-14.7-.9-17.2-.2-2.5-.4-8.1-.6-12.5-.1-4.4-.4-8.6-.6-9.3-.3-.6-2-1.2-3.8-1.2h-3.2l-.3-6.8c-.1-3.7-.4-8.7-.5-11.2-.3-4-1.3-24.3-1.9-37l-.2-4.5-9.2-.1c-5.1 0-9.3 0-9.5.2zm6.9 13.6c0 1.8.4 10 .8 18.3 1.4 26.8 1.6 24.8-2 25.2-2.7.3-4.3-.9-16.8-13.7-7.5-7.7-13.9-14-14.2-14-.7 0 .6 27.1 1.2 28.2.3.5-1 .8-2.8.9-1.8 0-4.3.2-5.5.3-1.5.2-2.3-.3-2.4-1.3-.4-6.1-.7-11.5-1.3-25.5-.4-8.7-.9-16.6-1.1-17.6-.3-1.5.5-1.9 4.8-2.2l5.2-.3L211.8 98l12.3 12.5-.6-13.3-.6-13.2h5.3c5.3 0 5.3 0 5.4 3.2zM172 89.5c9.3 4.2 9.9 19.7.9 24.6-1.9 1-1.7 1.3 2.5 5.7 7.6 8 11.6 12.5 11.3 12.8-.2.2-2.9.4-6.2.5-5.6.2-5.9.1-9.3-3.7-2-2.1-5.3-5.8-7.4-8.1-5.3-5.9-6.4-5.1-6 5l.4 8.2-5.1.3c-2.8.1-5.1-.1-5.2-.5-.4-3.2-.8-8.9-1.4-22.8-.4-8.8-.9-16.9-1.1-18-.9-4.5.2-5.2 8.3-5.4 4.2-.1 7.8-.3 8-.4.7-.8 7 .3 10.3 1.8zm-42.1 22.7c11.9 24.4 11.7 23.4 3.4 23.6-3.3.2-4.3-.2-4.3-1.3 0-1.3-1.6-4.5-3.7-7.4-.1-.2-3.5-.3-7.5-.1-4 .1-8.6.3-10.2.3-2.4.1-3.1.8-4.8 4.6-1 2.5-2.4 4.8-2.9 5.1-1.3.9-9.9 1.2-9.9.5 0-.4.9-2.7 1.9-5.3 1.1-2.6 4.9-12.8 8.6-22.7 3.7-9.9 6.9-18.3 7.1-18.7.3-.4 3-.8 6-.8h5.5l10.8 22.2zM82.3 96.3c.5 2.1.8 4 .6 4.1-.2.2-4.7.6-9.9.9-5.2.4-9.6.6-9.7.7-.2 0-.3 2.2-.3 4.9v4.9l8.7-.2 8.7-.1.3 3.7c.3 3.7.2 3.8-2.9 3.9-1.8.1-4.9.2-6.8.4-1.9.2-4.3.3-5.2.4-1.5.1-1.8 1.1-1.8 5.2v5.1l10.6-.5 10.6-.6-.6 4.2c-.4 2.3-.9 4.3-1.1 4.5-.2.2-3.2.6-6.7.8-3.5.2-9.8.6-14 .8-4.3.3-8 .2-8.2-.2-.2-.4-.7-5.7-1-11.7-.3-6.1-.8-16.3-1.2-22.7l-.6-11.7 7.4-.3c4-.2 10.7-.3 14.8-.3h7.4l.9 3.8zm-56.2 5.4c.1 3.8.2 8.1.4 9.8.2 1.6.4 6.6.6 11 .2 4.4.7 8.3 1.2 8.6.8.6 12.3.2 16-.6 1.2-.2 1.7.4 1.9 2.3 0 1.5.2 3.4.3 4.2.3 2.9-1.5 3.5-11.2 3.8-5.4.2-11.5.5-13.5.7-4.6.6-4.5.7-5.3-15.5-.3-6.3-.8-15.9-1.1-21.3l-.5-9.7H26l.1 6.7zm227 40c.1 3.2.2 7.6.3 9.8.2 2.2.6 10.3 1 18.1l.8 14h-2.4c-2.9.1-30.1 1.4-38.8 1.9-3.6.2-12.1.7-19 1-6.9.4-14.7.9-17.5 1-2.7.2-11.7.6-20 1-8.2.4-16.6.8-18.5 1-1.9.2-10.2.6-18.5 1-8.2.4-17 .8-19.5 1-2.5.2-11.7.6-20.5 1-8.8.3-17.6.8-19.5 1-1.9.2-10 .7-18 1-8 .4-16.2.8-18.2 1-2.1.2-3.9.1-4.2-.3-.4-.7-.8-7.4-2.2-34l-.7-13.2 5.9-.1c3.3-.1 7.3-.2 8.9-.4 1.7-.1 9.5-.6 17.5-1 8-.3 17-.8 20-1 3-.2 10.9-.6 17.5-.9 25.7-1.4 31.3-1.6 39.5-2.1 4.7-.3 13.2-.7 19-1 10.2-.5 15.1-.8 40.5-2 6.6-.3 14.3-.8 17-1 2.8-.2 11.5-.7 19.5-1.1 8-.3 14.6-.7 14.7-.7.1-.1 3.6-.3 7.7-.5l7.6-.3.1 5.8z"/><path d="M156.6 96.9c-.2.3-.3 3.3-.1 6.6l.2 6 4.4-.3c9.3-.6 11.1-10.9 2.2-12.5-3.4-.7-6.3-.6-6.7.2zM110.3 110.1l-3.3 9 7.2-.5c3.9-.3 7.2-.7 7.4-.9.1-.1-1.7-3.9-4-8.5l-4.1-8.2-3.2 9.1zM235.4 158.6l.4 7.7-6.8-7.2c-3.8-3.9-7.3-7.1-7.9-7.1-.8 0-1 2.2-.7 6.7.2 3.8.4 8 .5 9.5.1 1.6.5 2.8 1.1 2.8.5 0 .7-3.4.5-8.3l-.5-8.2 7.4 7.7c4.1 4.3 7.7 7.8 8 7.8.3 0 .4-2.6.2-5.8-.2-3.1-.5-7.4-.5-9.5-.1-2-.5-3.7-1.1-3.7-.6 0-.8 3-.6 7.6zM199.1 153.2c-4.3 1.5-7 9.2-4.7 13.3 2.7 4.9 7.7 6.8 12.6 4.8 5.5-2.2 7.8-7.5 5.5-12.9-2.1-5.1-7.8-7.3-13.4-5.2zm8 1.9c5.6 2.9 5.3 12-.4 14.4-8.9 3.7-15.5-8.3-7.5-13.9 2.6-1.9 5.1-2 7.9-.5zM178 154.7c-3.5 2.5-2.3 6.2 3 9.3 2.5 1.4 4.6 3.4 4.8 4.2.5 2.5-3.1 4-6.4 2.8-2.8-1.1-4.4-.6-2.8.9.9.9 3.6 1.4 6.6 1.2 2.6-.2 4.7-2.9 4.3-5.4-.5-2.4-3.9-5.7-6-5.7-.6 0-1.9-.8-2.9-1.8-1.5-1.8-1.5-2 .3-3.7 1.7-1.4 2.6-1.5 5-.7 2.5.9 2.9.8 2.4-.4-.3-.8-1-1.4-1.7-1.5-.6 0-1.9-.2-2.8-.4-.9-.2-2.6.4-3.8 1.2zM155.6 164.6c-2.1 5.2-3.5 9.8-3.2 10.1.4.4 1.2-.8 1.8-2.5 1.2-3.1 1.5-3.2 6.9-3.2 4.9 0 5.7.3 6.9 2.5 1.2 2.2 3.7 3.7 2.8 1.7-2.7-6.2-9.5-18.2-10.4-18.2-.6 0-2.8 4.3-4.8 9.6zm9.4 1.6c0 .5-1.8.8-4 .8s-4-.3-4-.7c0-.4.8-2.7 1.7-5.1l1.7-4.4 2.2 4.3c1.3 2.4 2.3 4.7 2.4 5.1zM142.8 163.6c.4 8.1-.7 10.9-3.9 9.9-1.1-.4-1.9-.2-1.9.4 0 1.4 3.2 1.9 5.8.7 2.2-.9 2.3-1.4 2-9.8-.2-5.3-.7-8.8-1.4-8.8-.6 0-.9 2.7-.6 7.6zM119 161.3v4.4l-6.4.2c-6 .2-6.3.1-6.3-2.1-.1-4.6-.3-5.8-1.2-5.8-.5 0-.8 2.1-.6 4.7.2 2.7.4 6.9.4 9.5.1 6.1 2.1 6.3 2.1.3V168l4.5-.1c2.5-.1 5.3-.2 6.2-.3 1.2-.1 1.8.7 1.9 2.9.2 5 .4 5.5 1.3 5.5.4 0 .7-1.7.6-3.8-.1-2-.3-6.3-.4-9.5-.1-6.6-2.1-7.9-2.1-1.4zM84.3 158.8c-2.4.2-4.3.7-4.3 1.3 0 .5 1.8.7 4 .5 2.9-.3 4 0 4.1 1 .5 5.2.7 7.9.8 11.9 0 2.5.6 4.5 1.1 4.5.7 0 1-3.1.8-8.8l-.3-8.7 3.8-.3c2-.2 3.7-.7 3.7-1.1 0-.8-5.1-.9-13.7-.3zM72.4 167.5c.3 4.9.5 9.6.5 10.2.1.7.6 1.3 1.1 1.3 1.4 0 .2-18.1-1.2-19.5-.6-.7-.8 2.1-.4 8zM61 168c-1.3 4.4-2.6 8-2.9 8-.3-.1-2.1-3.4-4-7.6-1.9-4.1-3.7-7.1-4.1-6.7-.4.4-1.2 2.1-1.8 3.8-.6 1.6-1.8 5.2-2.8 7.8l-1.7 4.8-2.7-6.8c-1.5-3.7-3-7.6-3.3-8.6-.4-1-1.1-1.6-1.6-1.3-1.1.7 6 18.8 7.4 18.8.6 0 2.3-3.5 4-7.7l2.9-7.8 3.6 7.6c1.9 4.2 3.9 7.5 4.5 7.4.5-.2 2.2-4.4 3.7-9.3 3.1-9.9 3.2-10.4 1.9-10.4-.4 0-1.8 3.6-3.1 8z"/></svg>