<svg xmlns="http://www.w3.org/2000/svg" width="510" height="616" fill="none"><mask id="a" width="218" height="109" x="157" y="507" mask-type="alpha" maskUnits="userSpaceOnUse"><path fill="#FFDF37" d="M375 507L266 616 157 507h218z"/></mask><g mask="url(#a)"><path fill="#FB8400" d="M375 507L266 616 157 507h218z"/><ellipse cx="160.406" cy="524.031" fill="#fff" rx="3.4063" ry="3.4063"/><circle cx="167.219" cy="510.406" r="3.4063" fill="#fff"/><ellipse cx="174.031" cy="524.031" fill="#fff" rx="3.4063" ry="3.4063"/><circle cx="180.844" cy="510.406" r="3.4063" fill="#fff"/><ellipse cx="187.656" cy="524.031" fill="#fff" rx="3.4063" ry="3.4063"/><ellipse cx="194.469" cy="510.406" fill="#fff" rx="3.4062" ry="3.4063"/><ellipse cx="201.281" cy="524.031" fill="#fff" rx="3.4063" ry="3.4063"/><circle cx="208.094" cy="510.406" r="3.4063" fill="#fff"/><ellipse cx="214.906" cy="524.031" fill="#fff" rx="3.4063" ry="3.4063"/><circle cx="221.719" cy="510.406" r="3.4063" fill="#fff"/><ellipse cx="228.531" cy="524.031" fill="#fff" rx="3.4063" ry="3.4063"/><circle cx="235.344" cy="510.406" r="3.4063" fill="#fff"/><ellipse cx="242.156" cy="524.031" fill="#fff" rx="3.4063" ry="3.4063"/><circle cx="160.406" cy="551.281" r="3.4063" fill="#fff"/><circle cx="167.219" cy="537.656" r="3.4063" fill="#fff"/><circle cx="174.031" cy="551.281" r="3.4063" fill="#fff"/><circle cx="180.844" cy="537.656" r="3.4063" fill="#fff"/><ellipse cx="187.656" cy="551.281" fill="#fff" rx="3.4063" ry="3.4063"/><ellipse cx="194.469" cy="537.656" fill="#fff" rx="3.4062" ry="3.4063"/><ellipse cx="201.281" cy="551.281" fill="#fff" rx="3.4063" ry="3.4063"/><circle cx="208.094" cy="537.656" r="3.4063" fill="#fff"/><circle cx="214.906" cy="551.281" r="3.4063" fill="#fff"/><circle cx="221.719" cy="537.656" r="3.4063" fill="#fff"/><circle cx="228.531" cy="551.281" r="3.4063" fill="#fff"/><circle cx="235.344" cy="537.656" r="3.4063" fill="#fff"/><circle cx="242.156" cy="551.281" r="3.4063" fill="#fff"/><circle cx="160.406" cy="578.531" r="3.4063" fill="#fff"/><circle cx="167.219" cy="564.906" r="3.4063" fill="#fff"/><circle cx="174.031" cy="578.531" r="3.4063" fill="#fff"/><circle cx="180.844" cy="564.906" r="3.4063" fill="#fff"/><ellipse cx="187.656" cy="578.531" fill="#fff" rx="3.4063" ry="3.4063"/><ellipse cx="194.469" cy="564.906" fill="#fff" rx="3.4062" ry="3.4063"/><ellipse cx="201.281" cy="578.531" fill="#fff" rx="3.4063" ry="3.4063"/><circle cx="208.094" cy="564.906" r="3.4063" fill="#fff"/><circle cx="214.906" cy="578.531" r="3.4063" fill="#fff"/><circle cx="221.719" cy="564.906" r="3.4063" fill="#fff"/><circle cx="228.531" cy="578.531" r="3.4063" fill="#fff"/><circle cx="235.344" cy="564.906" r="3.4063" fill="#fff"/><circle cx="242.156" cy="578.531" r="3.4063" fill="#fff"/><circle cx="160.406" cy="605.781" r="3.4063" fill="#fff"/><circle cx="167.219" cy="592.156" r="3.4063" fill="#fff"/><circle cx="174.031" cy="605.781" r="3.4063" fill="#fff"/><circle cx="180.844" cy="592.156" r="3.4063" fill="#fff"/><ellipse cx="187.656" cy="605.781" fill="#fff" rx="3.4063" ry="3.4063"/><ellipse cx="194.469" cy="592.156" fill="#fff" rx="3.4062" ry="3.4063"/><ellipse cx="201.281" cy="605.781" fill="#fff" rx="3.4063" ry="3.4063"/><circle cx="208.094" cy="592.156" r="3.4063" fill="#fff"/><circle cx="214.906" cy="605.781" r="3.4063" fill="#fff"/><circle cx="221.719" cy="592.156" r="3.4063" fill="#fff"/><circle cx="228.531" cy="605.781" r="3.4063" fill="#fff"/><circle cx="235.344" cy="592.156" r="3.4063" fill="#fff"/><circle cx="242.156" cy="605.781" r="3.4063" fill="#fff"/><ellipse cx="248.969" cy="510.406" fill="#fff" rx="3.4062" ry="3.4063"/><circle cx="255.781" cy="524.031" r="3.4063" fill="#fff"/><circle cx="262.594" cy="510.406" r="3.4063" fill="#fff"/><circle cx="269.406" cy="524.031" r="3.4063" fill="#fff"/><ellipse cx="276.219" cy="510.406" fill="#fff" rx="3.4062" ry="3.4063"/><ellipse cx="283.031" cy="524.031" fill="#fff" rx="3.4062" ry="3.4063"/><ellipse cx="289.844" cy="510.406" fill="#fff" rx="3.4063" ry="3.4063"/><ellipse cx="296.656" cy="524.031" fill="#fff" rx="3.4063" ry="3.4063"/><circle cx="303.469" cy="510.406" r="3.4063" fill="#fff"/><ellipse cx="310.281" cy="524.031" fill="#fff" rx="3.4063" ry="3.4063"/><circle cx="317.094" cy="510.406" r="3.4063" fill="#fff"/><ellipse cx="323.906" cy="524.031" fill="#fff" rx="3.4063" ry="3.4063"/><circle cx="330.719" cy="510.406" r="3.4063" fill="#fff"/><ellipse cx="337.531" cy="524.031" fill="#fff" rx="3.4063" ry="3.4063"/><circle cx="344.344" cy="510.406" r="3.4063" fill="#fff"/><ellipse cx="351.156" cy="524.031" fill="#fff" rx="3.4063" ry="3.4063"/><circle cx="357.969" cy="510.406" r="3.4063" fill="#fff"/><ellipse cx="364.781" cy="524.031" fill="#fff" rx="3.4063" ry="3.4063"/><circle cx="371.594" cy="510.406" r="3.4063" fill="#fff"/><ellipse cx="378.406" cy="524.031" fill="#fff" rx="3.4063" ry="3.4063"/><ellipse cx="248.969" cy="537.656" fill="#fff" rx="3.4062" ry="3.4063"/><ellipse cx="255.781" cy="551.281" fill="#fff" rx="3.4063" ry="3.4063"/><circle cx="262.594" cy="537.656" r="3.4063" fill="#fff"/><ellipse cx="269.406" cy="551.281" fill="#fff" rx="3.4063" ry="3.4063"/><ellipse cx="276.219" cy="537.656" fill="#fff" rx="3.4062" ry="3.4063"/><ellipse cx="283.031" cy="551.281" fill="#fff" rx="3.4062" ry="3.4063"/><ellipse cx="289.844" cy="537.656" fill="#fff" rx="3.4063" ry="3.4063"/><circle cx="296.656" cy="551.281" r="3.4063" fill="#fff"/><circle cx="303.469" cy="537.656" r="3.4063" fill="#fff"/><circle cx="310.281" cy="551.281" r="3.4063" fill="#fff"/><circle cx="317.094" cy="537.656" r="3.4063" fill="#fff"/><circle cx="323.906" cy="551.281" r="3.4063" fill="#fff"/><circle cx="330.719" cy="537.656" r="3.4063" fill="#fff"/><circle cx="337.531" cy="551.281" r="3.4063" fill="#fff"/><circle cx="344.344" cy="537.656" r="3.4063" fill="#fff"/><circle cx="351.156" cy="551.281" r="3.4063" fill="#fff"/><circle cx="357.969" cy="537.656" r="3.4063" fill="#fff"/><circle cx="364.781" cy="551.281" r="3.4063" fill="#fff"/><circle cx="371.594" cy="537.656" r="3.4063" fill="#fff"/><circle cx="378.406" cy="551.281" r="3.4063" fill="#fff"/><ellipse cx="248.969" cy="564.906" fill="#fff" rx="3.4062" ry="3.4063"/><ellipse cx="255.781" cy="578.531" fill="#fff" rx="3.4063" ry="3.4063"/><circle cx="262.594" cy="564.906" r="3.4063" fill="#fff"/><ellipse cx="269.406" cy="578.531" fill="#fff" rx="3.4063" ry="3.4063"/><ellipse cx="276.219" cy="564.906" fill="#fff" rx="3.4062" ry="3.4063"/><ellipse cx="283.031" cy="578.531" fill="#fff" rx="3.4062" ry="3.4063"/><ellipse cx="289.844" cy="564.906" fill="#fff" rx="3.4063" ry="3.4063"/><circle cx="296.656" cy="578.531" r="3.4063" fill="#fff"/><circle cx="303.469" cy="564.906" r="3.4063" fill="#fff"/><circle cx="310.281" cy="578.531" r="3.4063" fill="#fff"/><circle cx="317.094" cy="564.906" r="3.4063" fill="#fff"/><circle cx="323.906" cy="578.531" r="3.4063" fill="#fff"/><circle cx="330.719" cy="564.906" r="3.4063" fill="#fff"/><circle cx="337.531" cy="578.531" r="3.4063" fill="#fff"/><circle cx="344.344" cy="564.906" r="3.4063" fill="#fff"/><circle cx="351.156" cy="578.531" r="3.4063" fill="#fff"/><circle cx="357.969" cy="564.906" r="3.4063" fill="#fff"/><circle cx="364.781" cy="578.531" r="3.4063" fill="#fff"/><circle cx="371.594" cy="564.906" r="3.4063" fill="#fff"/><circle cx="378.406" cy="578.531" r="3.4063" fill="#fff"/><ellipse cx="248.969" cy="592.156" fill="#fff" rx="3.4062" ry="3.4063"/><ellipse cx="255.781" cy="605.781" fill="#fff" rx="3.4063" ry="3.4063"/><circle cx="262.594" cy="592.156" r="3.4063" fill="#fff"/><ellipse cx="269.406" cy="605.781" fill="#fff" rx="3.4063" ry="3.4063"/><ellipse cx="276.219" cy="592.156" fill="#fff" rx="3.4062" ry="3.4063"/><ellipse cx="283.031" cy="605.781" fill="#fff" rx="3.4062" ry="3.4063"/><ellipse cx="289.844" cy="592.156" fill="#fff" rx="3.4063" ry="3.4063"/><circle cx="296.656" cy="605.781" r="3.4063" fill="#fff"/><circle cx="303.469" cy="592.156" r="3.4063" fill="#fff"/><circle cx="310.281" cy="605.781" r="3.4063" fill="#fff"/><circle cx="317.094" cy="592.156" r="3.4063" fill="#fff"/><circle cx="323.906" cy="605.781" r="3.4063" fill="#fff"/><circle cx="330.719" cy="592.156" r="3.4063" fill="#fff"/><circle cx="337.531" cy="605.781" r="3.4063" fill="#fff"/><circle cx="344.344" cy="592.156" r="3.4063" fill="#fff"/><circle cx="351.156" cy="605.781" r="3.4063" fill="#fff"/><circle cx="357.969" cy="592.156" r="3.4063" fill="#fff"/><circle cx="364.781" cy="605.781" r="3.4063" fill="#fff"/><circle cx="371.594" cy="592.156" r="3.4063" fill="#fff"/><circle cx="378.406" cy="605.781" r="3.4063" fill="#fff"/></g><path fill="#D459AB" d="M334 328.85L409.75 250l75.75 68.2L334 328.85z"/><path fill="#A6FFFA" d="M265.5 45L114 196.5V45h151.5z"/><mask id="b" width="304" height="303" x="38" y="157" mask-type="alpha" maskUnits="userSpaceOnUse"><path fill="#05F7F4" d="M38.0002 308.5L189.5 157 341 308.5 189.5 460 38.0002 308.5z"/></mask><g fill="#362066" mask="url(#b)"><ellipse cx="52.2033" cy="161.734" rx="4.7344" ry="4.7344"/><ellipse cx="71.1408" cy="161.734" rx="4.7344" ry="4.7344"/><ellipse cx="90.0783" cy="161.734" rx="4.7344" ry="4.7344"/><ellipse cx="109.016" cy="161.734" rx="4.7344" ry="4.7344"/><ellipse cx="127.953" cy="161.734" rx="4.7344" ry="4.7344"/><ellipse cx="146.891" cy="161.734" rx="4.7344" ry="4.7344"/><ellipse cx="165.828" cy="161.734" rx="4.7344" ry="4.7344"/><ellipse cx="184.766" cy="161.734" rx="4.7344" ry="4.7344"/><circle cx="42.7345" cy="180.672" r="4.7344"/><ellipse cx="52.2033" cy="199.609" rx="4.7344" ry="4.7344"/><ellipse cx="61.672" cy="180.672" rx="4.7344" ry="4.7344"/><circle cx="71.1408" cy="199.609" r="4.7344"/><circle cx="80.6095" cy="180.672" r="4.7344"/><circle cx="90.0783" cy="199.609" r="4.7344"/><circle cx="99.547" cy="180.672" r="4.7344"/><ellipse cx="109.016" cy="199.609" rx="4.7344" ry="4.7344"/><ellipse cx="118.485" cy="180.672" rx="4.7344" ry="4.7344"/><ellipse cx="127.953" cy="199.609" rx="4.7344" ry="4.7344"/><circle cx="137.422" cy="180.672" r="4.7344"/><circle cx="146.891" cy="199.609" r="4.7344"/><circle cx="156.36" cy="180.672" r="4.7344"/><circle cx="165.828" cy="199.609" r="4.7344"/><circle cx="175.297" cy="180.672" r="4.7344"/><circle cx="184.766" cy="199.609" r="4.7344"/><ellipse cx="42.7345" cy="218.547" rx="4.7344" ry="4.7344"/><ellipse cx="52.2033" cy="237.484" rx="4.7344" ry="4.7344"/><ellipse cx="61.672" cy="218.547" rx="4.7344" ry="4.7344"/><circle cx="71.1408" cy="237.484" r="4.7344"/><ellipse cx="80.6095" cy="218.547" rx="4.7344" ry="4.7344"/><circle cx="90.0783" cy="237.484" r="4.7344"/><ellipse cx="99.547" cy="218.547" rx="4.7344" ry="4.7344"/><ellipse cx="109.016" cy="237.484" rx="4.7344" ry="4.7344"/><ellipse cx="118.485" cy="218.547" rx="4.7344" ry="4.7344"/><ellipse cx="127.953" cy="237.484" rx="4.7344" ry="4.7344"/><ellipse cx="137.422" cy="218.547" rx="4.7344" ry="4.7344"/><circle cx="146.891" cy="237.484" r="4.7344"/><ellipse cx="156.36" cy="218.547" rx="4.7344" ry="4.7344"/><circle cx="165.828" cy="237.484" r="4.7344"/><ellipse cx="175.297" cy="218.547" rx="4.7344" ry="4.7344"/><circle cx="184.766" cy="237.484" r="4.7344"/><circle cx="42.7345" cy="256.422" r="4.7344"/><ellipse cx="52.2033" cy="275.359" rx="4.7344" ry="4.7344"/><ellipse cx="61.672" cy="256.422" rx="4.7344" ry="4.7344"/><circle cx="71.1408" cy="275.359" r="4.7344"/><circle cx="80.6095" cy="256.422" r="4.7344"/><circle cx="90.0783" cy="275.359" r="4.7344"/><circle cx="99.547" cy="256.422" r="4.7344"/><ellipse cx="109.016" cy="275.359" rx="4.7344" ry="4.7344"/><ellipse cx="118.485" cy="256.422" rx="4.7344" ry="4.7344"/><ellipse cx="127.953" cy="275.359" rx="4.7344" ry="4.7344"/><circle cx="137.422" cy="256.422" r="4.7344"/><circle cx="146.891" cy="275.359" r="4.7344"/><circle cx="156.36" cy="256.422" r="4.7344"/><circle cx="165.828" cy="275.359" r="4.7344"/><circle cx="175.297" cy="256.422" r="4.7344"/><circle cx="184.766" cy="275.359" r="4.7344"/><ellipse cx="203.703" cy="161.734" rx="4.7344" ry="4.7344"/><ellipse cx="222.641" cy="161.734" rx="4.7344" ry="4.7344"/><ellipse cx="241.578" cy="161.734" rx="4.7344" ry="4.7344"/><ellipse cx="260.516" cy="161.734" rx="4.7344" ry="4.7344"/><ellipse cx="279.453" cy="161.734" rx="4.7344" ry="4.7344"/><ellipse cx="298.391" cy="161.734" rx="4.7344" ry="4.7344"/><ellipse cx="317.328" cy="161.734" rx="4.7344" ry="4.7344"/><ellipse cx="336.266" cy="161.734" rx="4.7344" ry="4.7344"/><ellipse cx="194.235" cy="180.672" rx="4.7344" ry="4.7344"/><ellipse cx="203.703" cy="199.609" rx="4.7344" ry="4.7344"/><circle cx="213.172" cy="180.672" r="4.7344"/><ellipse cx="222.641" cy="199.609" rx="4.7344" ry="4.7344"/><ellipse cx="232.11" cy="180.672" rx="4.7344" ry="4.7344"/><ellipse cx="241.578" cy="199.609" rx="4.7344" ry="4.7344"/><ellipse cx="251.047" cy="180.672" rx="4.7344" ry="4.7344"/><circle cx="260.516" cy="199.609" r="4.7344"/><circle cx="269.985" cy="180.672" r="4.7344"/><circle cx="279.453" cy="199.609" r="4.7344"/><circle cx="288.922" cy="180.672" r="4.7344"/><circle cx="298.391" cy="199.609" r="4.7344"/><circle cx="307.86" cy="180.672" r="4.7344"/><circle cx="317.328" cy="199.609" r="4.7344"/><circle cx="326.797" cy="180.672" r="4.7344"/><circle cx="336.266" cy="199.609" r="4.7344"/><ellipse cx="194.235" cy="218.547" rx="4.7344" ry="4.7344"/><ellipse cx="203.703" cy="237.484" rx="4.7344" ry="4.7344"/><ellipse cx="213.172" cy="218.547" rx="4.7344" ry="4.7344"/><ellipse cx="222.641" cy="237.484" rx="4.7344" ry="4.7344"/><ellipse cx="232.11" cy="218.547" rx="4.7344" ry="4.7344"/><ellipse cx="241.578" cy="237.484" rx="4.7344" ry="4.7344"/><ellipse cx="251.047" cy="218.547" rx="4.7344" ry="4.7344"/><circle cx="260.516" cy="237.484" r="4.7344"/><ellipse cx="269.985" cy="218.547" rx="4.7344" ry="4.7344"/><circle cx="279.453" cy="237.484" r="4.7344"/><ellipse cx="288.922" cy="218.547" rx="4.7344" ry="4.7344"/><circle cx="298.391" cy="237.484" r="4.7344"/><ellipse cx="307.86" cy="218.547" rx="4.7344" ry="4.7344"/><circle cx="317.328" cy="237.484" r="4.7344"/><ellipse cx="326.797" cy="218.547" rx="4.7344" ry="4.7344"/><circle cx="336.266" cy="237.484" r="4.7344"/><ellipse cx="194.235" cy="256.422" rx="4.7344" ry="4.7344"/><ellipse cx="203.703" cy="275.359" rx="4.7344" ry="4.7344"/><circle cx="213.172" cy="256.422" r="4.7344"/><ellipse cx="222.641" cy="275.359" rx="4.7344" ry="4.7344"/><ellipse cx="232.11" cy="256.422" rx="4.7344" ry="4.7344"/><ellipse cx="241.578" cy="275.359" rx="4.7344" ry="4.7344"/><ellipse cx="251.047" cy="256.422" rx="4.7344" ry="4.7344"/><circle cx="260.516" cy="275.359" r="4.7344"/><circle cx="269.985" cy="256.422" r="4.7344"/><circle cx="279.453" cy="275.359" r="4.7344"/><circle cx="288.922" cy="256.422" r="4.7344"/><circle cx="298.391" cy="275.359" r="4.7344"/><circle cx="307.86" cy="256.422" r="4.7344"/><circle cx="317.328" cy="275.359" r="4.7344"/><circle cx="326.797" cy="256.422" r="4.7344"/><circle cx="336.266" cy="275.359" r="4.7344"/><circle cx="42.7345" cy="294.297" r="4.7344"/><ellipse cx="52.2033" cy="313.234" rx="4.7344" ry="4.7344"/><ellipse cx="61.672" cy="294.297" rx="4.7344" ry="4.7344"/><ellipse cx="71.1408" cy="313.234" rx="4.7344" ry="4.7344"/><circle cx="80.6095" cy="294.297" r="4.7344"/><ellipse cx="90.0783" cy="313.234" rx="4.7344" ry="4.7344"/><circle cx="99.547" cy="294.297" r="4.7344"/><ellipse cx="109.016" cy="313.234" rx="4.7344" ry="4.7344"/><ellipse cx="118.485" cy="294.297" rx="4.7344" ry="4.7344"/><ellipse cx="127.953" cy="313.234" rx="4.7344" ry="4.7344"/><circle cx="137.422" cy="294.297" r="4.7344"/><ellipse cx="146.891" cy="313.234" rx="4.7344" ry="4.7344"/><circle cx="156.36" cy="294.297" r="4.7344"/><ellipse cx="165.828" cy="313.234" rx="4.7344" ry="4.7344"/><circle cx="175.297" cy="294.297" r="4.7344"/><ellipse cx="184.766" cy="313.234" rx="4.7344" ry="4.7344"/><circle cx="42.7345" cy="332.172" r="4.7344"/><ellipse cx="52.2033" cy="351.109" rx="4.7344" ry="4.7344"/><ellipse cx="61.672" cy="332.172" rx="4.7344" ry="4.7344"/><circle cx="71.1408" cy="351.109" r="4.7344"/><circle cx="80.6095" cy="332.172" r="4.7344"/><circle cx="90.0783" cy="351.109" r="4.7344"/><circle cx="99.547" cy="332.172" r="4.7344"/><ellipse cx="109.016" cy="351.109" rx="4.7344" ry="4.7344"/><ellipse cx="118.485" cy="332.172" rx="4.7344" ry="4.7344"/><ellipse cx="127.953" cy="351.109" rx="4.7344" ry="4.7344"/><circle cx="137.422" cy="332.172" r="4.7344"/><circle cx="146.891" cy="351.109" r="4.7344"/><circle cx="156.36" cy="332.172" r="4.7344"/><circle cx="165.828" cy="351.109" r="4.7344"/><circle cx="175.297" cy="332.172" r="4.7344"/><circle cx="184.766" cy="351.109" r="4.7344"/><circle cx="42.7345" cy="370.047" r="4.7344"/><ellipse cx="52.2033" cy="388.984" rx="4.7344" ry="4.7344"/><ellipse cx="61.672" cy="370.047" rx="4.7344" ry="4.7344"/><circle cx="71.1408" cy="388.984" r="4.7344"/><circle cx="80.6095" cy="370.047" r="4.7344"/><circle cx="90.0783" cy="388.984" r="4.7344"/><circle cx="99.547" cy="370.047" r="4.7344"/><ellipse cx="109.016" cy="388.984" rx="4.7344" ry="4.7344"/><ellipse cx="118.485" cy="370.047" rx="4.7344" ry="4.7344"/><ellipse cx="127.953" cy="388.984" rx="4.7344" ry="4.7344"/><circle cx="137.422" cy="370.047" r="4.7344"/><circle cx="146.891" cy="388.984" r="4.7344"/><circle cx="156.36" cy="370.047" r="4.7344"/><circle cx="165.828" cy="388.984" r="4.7344"/><circle cx="175.297" cy="370.047" r="4.7344"/><circle cx="184.766" cy="388.984" r="4.7344"/><circle cx="42.7345" cy="407.922" r="4.7344"/><ellipse cx="52.2033" cy="426.859" rx="4.7344" ry="4.7344"/><ellipse cx="61.672" cy="407.922" rx="4.7344" ry="4.7344"/><circle cx="71.1408" cy="426.859" r="4.7344"/><circle cx="80.6095" cy="407.922" r="4.7344"/><circle cx="90.0783" cy="426.859" r="4.7344"/><circle cx="99.547" cy="407.922" r="4.7344"/><ellipse cx="109.016" cy="426.859" rx="4.7344" ry="4.7344"/><ellipse cx="118.485" cy="407.922" rx="4.7344" ry="4.7344"/><ellipse cx="127.953" cy="426.859" rx="4.7344" ry="4.7344"/><circle cx="137.422" cy="407.922" r="4.7344"/><circle cx="146.891" cy="426.859" r="4.7344"/><circle cx="156.36" cy="407.922" r="4.7344"/><circle cx="165.828" cy="426.859" r="4.7344"/><circle cx="175.297" cy="407.922" r="4.7344"/><circle cx="184.766" cy="426.859" r="4.7344"/><circle cx="42.7345" cy="445.797" r="4.7344"/><ellipse cx="61.672" cy="445.797" rx="4.7344" ry="4.7344"/><circle cx="80.6095" cy="445.797" r="4.7344"/><circle cx="99.547" cy="445.797" r="4.7344"/><ellipse cx="118.485" cy="445.797" rx="4.7344" ry="4.7344"/><circle cx="137.422" cy="445.797" r="4.7344"/><circle cx="156.36" cy="445.797" r="4.7344"/><circle cx="175.297" cy="445.797" r="4.7344"/><ellipse cx="194.235" cy="294.297" rx="4.7344" ry="4.7344"/><circle cx="203.703" cy="313.234" r="4.7344"/><circle cx="213.172" cy="294.297" r="4.7344"/><circle cx="222.641" cy="313.234" r="4.7344"/><ellipse cx="232.11" cy="294.297" rx="4.7344" ry="4.7344"/><ellipse cx="241.578" cy="313.234" rx="4.7344" ry="4.7344"/><ellipse cx="251.047" cy="294.297" rx="4.7344" ry="4.7344"/><ellipse cx="260.516" cy="313.234" rx="4.7344" ry="4.7344"/><circle cx="269.985" cy="294.297" r="4.7344"/><ellipse cx="279.453" cy="313.234" rx="4.7344" ry="4.7344"/><circle cx="288.922" cy="294.297" r="4.7344"/><ellipse cx="298.391" cy="313.234" rx="4.7344" ry="4.7344"/><circle cx="307.86" cy="294.297" r="4.7344"/><ellipse cx="317.328" cy="313.234" rx="4.7344" ry="4.7344"/><circle cx="326.797" cy="294.297" r="4.7344"/><ellipse cx="336.266" cy="313.234" rx="4.7344" ry="4.7344"/><ellipse cx="194.235" cy="332.172" rx="4.7344" ry="4.7344"/><ellipse cx="203.703" cy="351.109" rx="4.7344" ry="4.7344"/><circle cx="213.172" cy="332.172" r="4.7344"/><ellipse cx="222.641" cy="351.109" rx="4.7344" ry="4.7344"/><ellipse cx="232.11" cy="332.172" rx="4.7344" ry="4.7344"/><ellipse cx="241.578" cy="351.109" rx="4.7344" ry="4.7344"/><ellipse cx="251.047" cy="332.172" rx="4.7344" ry="4.7344"/><circle cx="260.516" cy="351.109" r="4.7344"/><circle cx="269.985" cy="332.172" r="4.7344"/><circle cx="279.453" cy="351.109" r="4.7344"/><circle cx="288.922" cy="332.172" r="4.7344"/><circle cx="298.391" cy="351.109" r="4.7344"/><circle cx="307.86" cy="332.172" r="4.7344"/><circle cx="317.328" cy="351.109" r="4.7344"/><circle cx="326.797" cy="332.172" r="4.7344"/><circle cx="336.266" cy="351.109" r="4.7344"/><ellipse cx="194.235" cy="370.047" rx="4.7344" ry="4.7344"/><ellipse cx="203.703" cy="388.984" rx="4.7344" ry="4.7344"/><circle cx="213.172" cy="370.047" r="4.7344"/><ellipse cx="222.641" cy="388.984" rx="4.7344" ry="4.7344"/><ellipse cx="232.11" cy="370.047" rx="4.7344" ry="4.7344"/><ellipse cx="241.578" cy="388.984" rx="4.7344" ry="4.7344"/><ellipse cx="251.047" cy="370.047" rx="4.7344" ry="4.7344"/><circle cx="260.516" cy="388.984" r="4.7344"/><circle cx="269.985" cy="370.047" r="4.7344"/><circle cx="279.453" cy="388.984" r="4.7344"/><circle cx="288.922" cy="370.047" r="4.7344"/><circle cx="298.391" cy="388.984" r="4.7344"/><circle cx="307.86" cy="370.047" r="4.7344"/><circle cx="317.328" cy="388.984" r="4.7344"/><circle cx="326.797" cy="370.047" r="4.7344"/><circle cx="336.266" cy="388.984" r="4.7344"/><ellipse cx="194.235" cy="407.922" rx="4.7344" ry="4.7344"/><ellipse cx="203.703" cy="426.859" rx="4.7344" ry="4.7344"/><circle cx="213.172" cy="407.922" r="4.7344"/><ellipse cx="222.641" cy="426.859" rx="4.7344" ry="4.7344"/><ellipse cx="232.11" cy="407.922" rx="4.7344" ry="4.7344"/><ellipse cx="241.578" cy="426.859" rx="4.7344" ry="4.7344"/><ellipse cx="251.047" cy="407.922" rx="4.7344" ry="4.7344"/><circle cx="260.516" cy="426.859" r="4.7344"/><circle cx="269.985" cy="407.922" r="4.7344"/><circle cx="279.453" cy="426.859" r="4.7344"/><circle cx="288.922" cy="407.922" r="4.7344"/><circle cx="298.391" cy="426.859" r="4.7344"/><circle cx="307.86" cy="407.922" r="4.7344"/><circle cx="317.328" cy="426.859" r="4.7344"/><circle cx="326.797" cy="407.922" r="4.7344"/><circle cx="336.266" cy="426.859" r="4.7344"/><ellipse cx="194.235" cy="445.797" rx="4.7344" ry="4.7344"/><circle cx="213.172" cy="445.797" r="4.7344"/><ellipse cx="232.11" cy="445.797" rx="4.7344" ry="4.7344"/><ellipse cx="251.047" cy="445.797" rx="4.7344" ry="4.7344"/><circle cx="269.985" cy="445.797" r="4.7344"/><circle cx="288.922" cy="445.797" r="4.7344"/><circle cx="307.86" cy="445.797" r="4.7344"/><circle cx="326.797" cy="445.797" r="4.7344"/></g><mask id="c" width="406" height="351" x="73" y="133" mask-type="alpha" maskUnits="userSpaceOnUse"><path fill="#362066" stroke="#362066" stroke-width="4" d="M475.186 135L276 480 76.8143 135H475.186z"/></mask><g mask="url(#c)"><path fill="#362066" stroke="#362066" stroke-width="4" d="M475.186 135L276 480 76.8143 135H475.186z"/><path fill="#fff" d="M43.9688 140.953h463.969v4.7344H43.9688zM43.9688 155.156h463.969v4.7344H43.9688zM43.9688 169.359h463.969v4.7344H43.9688zM43.9688 183.563h463.969v4.7344H43.9688zM43.9688 197.766h463.969v4.7344H43.9688zM43.9688 211.969h463.969v4.7344H43.9688zM43.9688 226.172h463.969v4.7344H43.9688zM43.9688 240.375h463.969v4.7344H43.9688zM43.9688 254.578h463.969v4.7344H43.9688zM43.9688 268.781h463.969v4.7344H43.9688zM43.9688 282.984h463.969v4.7344H43.9688zM43.9688 297.188h463.969v4.7344H43.9688zM43.9688 311.391h463.969v4.7344H43.9688zM43.9688 325.594h463.969v4.7343H43.9688zM43.9688 339.797h463.969v4.7344H43.9688zM43.9688 354h463.969v4.7344H43.9688zM43.9688 368.203h463.969v4.7344H43.9688zM43.9688 382.406h463.969v4.7344H43.9688zM43.9688 396.609h463.969v4.7344H43.9688zM43.9688 410.813h463.969v4.7344H43.9688zM43.9688 425.016h463.969v4.7344H43.9688z"/></g><path fill="#fff" d="M252 468L49.3501 117H454.65L252 468z"/><mask id="d" width="406" height="351" x="49" y="117" mask-type="alpha" maskUnits="userSpaceOnUse"><path fill="#C4C4C4" d="M252 468L49.35 117h405.3L252 468z"/></mask><g mask="url(#d)"><path fill="#FFDF37" d="M288.65 488L86 137h405.3L288.65 488z"/></g><path fill="#362066" fill-rule="evenodd" d="M252 468L49.3502 117H454.65L252 468zM56.2784 121L252 460l195.722-339H56.2784z" clip-rule="evenodd"/><g clip-path="url(#clip0)"><path fill="#232129" stroke="#232129" d="M302.527 184.443l.49-.01v-4.613c0-.926.334-1.855.749-2.432.211-.294.407-.446.54-.498.059-.023.092-.021.108-.018.012.003.038.01.077.045.002.004.005.009.008.016.017.035.04.09.068.171.055.162.117.391.184.692.133.6.279 1.446.427 2.516.296 2.138.597 5.144.834 8.817.476 7.344.695 17.337.11 28.359-1.17 22.038-7.902 49.954-13.151 61.965-2.633 6.025-6.635 14.206-12.877 20.878-6.231 6.66-14.681 11.805-26.24 11.805-29.403 0-39.565-22.239-44.444-32.914-.411-.902-.786-1.721-1.131-2.437-1.073-2.228-2.309-6.394-3.588-11.599-1.275-5.189-2.583-11.365-3.81-17.582-2.315-11.732-4.337-23.595-5.297-29.228-.057-.338-.111-.653-.161-.945-.695-4.073-.696-7.705-.521-11.142.061-1.192.143-2.369.225-3.535.153-2.175.303-4.313.303-6.442 0-3.09-.378-5.81-.678-7.965-.076-.544-.147-1.052-.205-1.521-.073-.587-.104-1.008-.088-1.296.005-.091.014-.158.024-.205.041.012.101.033.184.071.265.121.635.354 1.144.72.414.297.753.78 1.033 1.39.278.606.48 1.297.642 1.966.081.333.15.656.215.958l.012.057c.06.278.116.541.172.768.058.235.123.464.204.641.04.088.098.195.184.287.089.095.247.211.468.211.624 0 2.118-.004 7.701-.889 5.546-.88 16.367-1.761 21.028-1.761 2.299 0 5.561.435 8.633.986 3.069.55 5.906 1.209 7.346 1.643 1.545.466 2.714.465 3.859.35.345-.035.679-.078 1.016-.122.789-.102 1.594-.207 2.598-.207.508 0 .968.01 1.394.019 1.968.043 3.204.069 5.012-.969 1.983-1.138 10.124-4.36 20.037-5.532 7.948-.939 20.083-1.371 25.162-1.469zm-85.093 7.545l.069.495-.069-.495c-4.24.587-7.675 1.183-10.053 2.168-1.195.496-2.162 1.105-2.833 1.897-.681.804-1.03 1.766-1.03 2.909 0 2.811.147 5.717.632 8.301.482 2.573 1.311 4.889 2.72 6.463 1.362 1.52 2.904 2.837 5.694 3.644 2.759.797 6.713 1.087 12.89.644 6.159-.442 9.733-1.255 12.203-3.039 2.473-1.785 3.766-4.497 5.514-8.448 1.784-4.033 1.988-7.064 1.028-9.273-.965-2.222-3.041-3.468-5.467-4.078-4.734-1.189-12.716-2.377-21.298-1.188zm40.678 3.189l-.026.045-.016.049c-.654 1.971-.568 4.782 2.966 11.292 1.773 3.264 3.375 5.294 5.718 6.432 2.321 1.127 5.292 1.339 9.689 1.191 4.424-.148 8.418-.666 11.685-1.487 3.252-.817 5.839-1.946 7.396-3.353.818-.74 1.494-1.929 2.031-3.315.542-1.396.962-3.042 1.242-4.742.555-3.385.566-7.081-.2-9.543-.824-2.65-3.441-3.948-7.075-4.47-3.657-.524-8.547-.297-14.267.292-5.741.592-9.972 1.556-13.04 2.834-3.072 1.279-5.006 2.886-6.103 4.775zm46.002-3.194h-.424c-.625 0-1.733.505-2.5 2.044-.257.516-.43 1.283-.577 2.151-.125.742-.237 1.606-.356 2.527-.022.173-.045.347-.068.524-.293 2.25-.655 4.781-1.371 6.938-.695 2.094-1.864 3.546-3.745 4.701-1.907 1.17-4.552 2.04-8.21 2.922-7.264 1.751-14.23 1.748-19.144.877-2.302-.408-4.548-2.342-6.436-4.749-1.873-2.388-3.314-5.141-4.031-7.012-.032-.086-.065-.171-.097-.255-.324-.847-.614-1.606-.914-2.259-.329-.719-.685-1.343-1.138-1.841-.949-1.04-2.229-1.419-4.219-1.265l.038.498-.038-.498c-1.991.153-3.241.778-3.979 1.694-.728.904-.88 1.999-.88 2.927 0 .367-.128 1.044-.38 1.951-.247.889-.6 1.951-1.017 3.064-.838 2.231-1.923 4.625-2.923 6.203-.971 1.533-2.428 3.008-5.22 4.109-2.813 1.109-6.994 1.842-13.412 1.842-6.433 0-10.33-.515-12.821-1.302-2.459-.776-3.547-1.815-4.368-2.914-.401-.537-.803-1.337-1.201-2.315-.396-.971-.776-2.088-1.141-3.242-.277-.877-.547-1.782-.808-2.657-.419-1.403-.814-2.727-1.177-3.731-1.043-2.881-3.703-3.383-4.913-3.273l-.455.042v7.229c0 3.853.001 6.87 2.086 12.255 1.009 2.607 1.588 5.3 2.175 8.141.03.146.06.292.091.438.556 2.7 1.139 5.529 2.123 8.479 1.061 3.181 2.524 4.748 4.235 5.847.737.472 1.518.856 2.299 1.241.105.052.21.103.315.155.894.443 1.8.909 2.721 1.55l.285-.411-.285.411c.903.628 1.659 1.402 2.356 2.215.341.397.663.799.983 1.198l.025.03c.326.406.65.81.978 1.187.654.749 1.354 1.433 2.186 1.864.85.44 1.811.603 2.95.357.395-.084.722-.26.964-.545.236-.278.354-.618.414-.967.102-.598.052-1.373-.003-2.217-.007-.1-.013-.201-.02-.303-.123-1.975-.22-4.621 1.055-7.753.613-1.505 1.801-2.818 3.359-3.958 1.557-1.139 3.457-2.086 5.448-2.866 3.984-1.56 8.269-2.429 10.749-2.854l-.084-.493.084.493c2.416-.413 3.961-.206 5.261.101.31.073.615.155.922.237.965.259 1.943.522 3.113.522 1.583 0 2.694-.482 3.683-1.017.207-.112.405-.224.599-.334.744-.419 1.423-.802 2.29-1.02 1.108-.278 3.988-.574 7.6-.5 3.6.073 7.876.511 11.776 1.672 1.897.565 3.18 1.452 4.045 2.487.867 1.038 1.337 2.254 1.561 3.513.418 2.345-.031 4.767-.318 6.319-.024.128-.046.25-.067.365-.295 1.627-.439 3.028-.353 3.992.042.469.144.924.388 1.241.132.171.312.309.542.371.226.061.452.035.66-.034 1.332-.446 2.545-.918 3.738-1.861 1.19-.941 2.328-2.326 3.575-4.553 1.745-3.116 3.215-5.041 5.139-7.559.966-1.265 2.046-2.679 3.332-4.468 1.983-2.758 3.02-6.989 3.571-11.309.554-4.34.628-8.857.628-12.248 0-5.455-.786-11.551-1.18-13.923l-.069-.418zm-60.758 51.834l-.056.497.056-.497c-2.649-.296-5.33-.448-7.509-.221-1.09.113-2.08.323-2.887.673-.808.351-1.47.859-1.833 1.589-.358.718-.419 1.755-.321 2.858.1 1.124.375 2.402.767 3.661.393 1.26.909 2.515 1.5 3.593.587 1.069 1.267 2.003 2.005 2.579.813.635 1.818.717 2.83.57 1.008-.147 2.109-.534 3.186-.938.178-.066.356-.134.533-.201.912-.345 1.808-.684 2.669-.916 1.031-.278 1.939-.381 2.694-.191 1.835.461 3.08.386 4.167.191.33-.059.629-.125.917-.188.678-.148 1.291-.283 2.073-.283.554 0 1.117.079 1.735.164 1.788.248 4.032.559 7.813-.781 1.18-.419 2.09-.48 2.826-.381.741.099 1.341.364 1.913.651.085.043.172.087.26.133.471.242.975.501 1.493.609.672.14 1.358.032 2.121-.479.775-.519 1.354-1.413 1.811-2.412.462-1.009.828-2.191 1.142-3.359.18-.671.349-1.364.51-2.018.114-.468.224-.916.329-1.322.264-1.018.506-1.8.761-2.248.301-.529.541-1.025.684-1.483.143-.457.202-.913.101-1.345-.214-.917-1.059-1.428-2.27-1.733-.367-.092-.858-.107-1.4-.083-.553.024-1.203.09-1.911.183-1.415.186-3.094.483-4.741.777l-.267.047c-1.56.279-3.076.55-4.321.723-.659.091-1.23.153-1.686.175-.478.023-.759-.003-.881-.044l-.159.474.159-.474c-.643-.215-1.37-.643-2.171-1.114-.218-.129-.442-.26-.67-.391-.518-.298-1.054-.587-1.581-.803-.523-.214-1.068-.368-1.6-.368-.801 0-1.576.355-2.321.797-.431.256-.901.574-1.381.899-.332.224-.669.452-1.002.665-1.691 1.085-3.622 2.04-6.087 1.765z"/></g><path fill="#362066" d="M20.1496 350.913l421.2134-29.608-5.765 116.647L14.3845 467.56l5.7651-116.647z"/><path fill="#fff" d="M47.8531 367.929l-4.0618 77.818 41.8725-2.943.7938-15.167-24.0594 1.691 3.2681-62.652-17.8132 1.253zM150.365 360.723l-42.567 2.992-4.062 77.818 43.03-3.024.793-15.167-25.678 1.805.878-17.266 24.291-1.707.794-15.167-24.291 1.707.802-15.052 25.216-1.772.794-15.167zM221.599 433.249l18.276-1.285-26.129-75.696-16.425 1.154-35.292 80.014 19.201-1.35L187.493 421l29.148-2.049 4.958 14.298zm-28.357-26.37l11.044-28.093 8.157 26.743-19.201 1.35zM260.333 352.993l-4.061 77.819 17.813-1.253 1.563-30.681 20.761 29.112 20.821-1.463-22.099-29.948c4.223-1.111 8.695-3.634 11.822-7.108 3.549-4.086 5.687-10.048 5.175-17.335-.561-7.982-3.803-12.752-6.658-15.341-6.223-5.84-13.559-6.022-20.961-5.501l-24.176 1.699zm17.054 12.75l2.661-.187c4.048-.284 7.427-.173 9.846 1.168 3.261 1.747 4.059 4.829 4.23 7.258.228 3.239-.346 6.65-3.299 9.299-2.952 2.649-7.323 3.305-10.215 3.508l-4.395.309 1.172-21.355zM352.442 424.052l2.586-50.863 39.287 47.919 15.5-1.089 4.061-77.819-17.813 1.252-2.717 50.64-39.04-47.705-15.499 1.09-4.178 77.827 17.813-1.252z"/><path fill="#362066" d="M455.837 423.766L41.2489 452.908l-4.383 102.713 414.5881-29.142 4.383-102.713z"/><path fill="#fff" d="M45.2363 456.787l-4.0269 94.37L447.467 522.6l4.027-94.37-406.2577 28.557z"/><path fill="#362066" d="M77.9605 485.22l12.1917 38.355 13.1988-30.756 9.368 29.17 17.6-40.449-4.613.324-12.276 28.792-9.478-29.162-13.1438 30.752-8.3455-27.342-4.5022.316zM139.435 480.899l-1.951 37.394 4.113-.289 1.951-37.394-4.113.289zM174.898 482.316l.227-3.926-22.122 1.555-.227 3.926 9.004-.633-1.725 33.468 4.113-.289 1.726-33.468 9.004-.633zM188.675 477.438l-4.113.289-1.952 37.394 4.113-.289.949-18.276 19.01-1.337-.95 18.277 4.113-.289 1.952-37.394-4.113.289-.775 15.192-19.01 1.336.776-15.192zM245.064 473.474l-1.396 27.022c-.195 3.588-.864 5.199-1.639 6.091-.775.893-1.7 1.237-2.812 1.315-1.001.071-1.628-.109-2.437-.499-.639-.346-1.222-.696-1.765-1.272l-2.442 3.411c.837.779 1.769 1.328 2.69 1.71 1.266.526 2.449.666 3.783.572 3.724-.261 5.564-1.899 6.287-2.732 1.809-2.082 2.261-5.186 2.448-8.886l1.396-27.021-4.113.289zM285.568 507.884l4.446-.313-14.57-38.02-19.113 40.388 4.669-.328 4.991-10.852 15.785-1.11 3.792 10.235zm-17.739-13.164l7.072-15.411 5.49 14.528-12.562.883zM318.888 473.48c-.788-1.676-2.12-3.147-3.632-3.99-2.095-1.193-4.612-1.24-6.223-1.127-3.113.219-5.778 1.244-7.952 3.687-1.968 2.205-2.582 4.594-2.398 7.207.203 2.89 1.439 4.591 2.514 5.576 1.313 1.193 3.559 2.152 4.59 2.526l3.044 1.183c1.206.474 3 1.353 3.769 1.969 1.063.819 2.177 2.361 2.333 4.584.125 1.779-.334 3.99-1.622 5.532-1.598 1.9-3.857 2.338-5.636 2.463-1.834.129-3.688-.02-5.417-1.574-1.253-1.141-2.097-2.813-2.341-4.695l-4.035 1.401c.466 2.648 1.86 5.008 3.59 6.562 2.379 2.067 4.864 2.451 7.865 2.24 2.613-.184 6.48-.791 9.366-4.233 2.524-3.026 2.675-6.444 2.523-8.612-.168-2.39-.694-4.308-2.959-6.327-1.431-1.296-3.169-2.179-4.947-2.836l-3.444-1.322c-.806-.335-2.48-1.111-3.25-1.727-1.182-.922-1.712-2.114-1.794-3.281-.121-1.723.595-3.449 1.637-4.528 1.406-1.439 3.17-1.787 4.559-1.884 1.278-.09 2.787-.085 4.251.874.88.608 1.725 1.498 2.26 2.746l3.349-2.414zM347.5 504.201c7.059-.496 12.148-3.591 15.153-6.93 3.884-4.351 5.522-10.443 5.12-16.168-.414-5.892-3.189-9.606-5.743-11.773-4.101-3.51-8.722-4.079-12.779-3.794-6.17.434-11.035 2.731-14.82 6.907-2.802 3.046-5.789 8.227-5.254 15.842.418 5.947 3.201 9.773 5.644 11.948 3.934 3.521 8.622 4.253 12.679 3.968zm1.58-34.743c4.724-.332 7.918 1.399 9.881 3.104 2.439 2.119 4.293 5.452 4.586 9.62.309 4.391-1.126 9.408-4.182 12.806-2.536 2.86-6.691 4.939-11.694 5.291-4.502.316-7.628-1.251-9.714-3.116-2.324-2.071-4.234-5.399-4.555-9.957-.398-5.67 1.818-9.903 4.258-12.532 2.703-2.871 6.695-4.884 11.42-5.216zM382.515 501.069l1.482-28.982 27.316 28.634 2.057-39.077-4.113.289-1.53 29.097-27.316-28.634-2.009 38.962 4.113-.289z"/><defs><clipPath id="clip0"><path fill="#fff" d="M0 0h113.038v136.265H0z" transform="translate(193.955 176.371)"/></clipPath></defs></svg>